<svg width="57" height="56" viewBox="0 0 57 56" fill="none" xmlns="http://www.w3.org/2000/svg">
<path d="M33.7001 28.2V27.5H33.0001H28.5001C25.6135 27.5 23.3001 29.8134 23.3001 32.7C23.3001 35.5865 25.6135 37.9 28.5001 37.9C31.3867 37.9 33.7001 35.5865 33.7001 32.7V28.2ZM37.9001 23.3L37.2001 23.3V23.3003V23.3006V23.3012V23.3019V23.3027V23.3037V23.3049V23.3062V23.3077V23.3093V23.311V23.3129V23.315V23.3172V23.3195V23.322V23.3247V23.3275V23.3304V23.3335V23.3367V23.3401V23.3436V23.3473V23.3511V23.3551V23.3592V23.3634V23.3678V23.3723V23.377V23.3818V23.3867V23.3918V23.397V23.4023V23.4078V23.4135V23.4192V23.4251V23.4312V23.4373V23.4436V23.4501V23.4566V23.4633V23.4702V23.4772V23.4843V23.4915V23.4989V23.5063V23.514V23.5217V23.5296V23.5376V23.5457V23.554V23.5624V23.5709V23.5796V23.5883V23.5972V23.6062V23.6154V23.6246V23.634V23.6435V23.6532V23.6629V23.6728V23.6828V23.6929V23.7031V23.7135V23.7239V23.7345V23.7452V23.756V23.767V23.778V23.7892V23.8005V23.8119V23.8234V23.835V23.8467V23.8586V23.8705V23.8826V23.8948V23.9071V23.9195V23.932V23.9446V23.9574V23.9702V23.9831V23.9962V24.0094V24.0226V24.036V24.0495V24.063V24.0767V24.0905V24.1044V24.1184V24.1325V24.1467V24.161V24.1754V24.1899V24.2045V24.2192V24.234V24.2489V24.2638V24.2789V24.2941V24.3094V24.3248V24.3402V24.3558V24.3715V24.3872V24.4031V24.419V24.435V24.4512V24.4674V24.4837V24.5001V24.5166V24.5331V24.5498V24.5666V24.5834V24.6003V24.6173V24.6344V24.6516V24.6689V24.6863V24.7037V24.7212V24.7388V24.7565V24.7743V24.7921V24.8101V24.8281V24.8462V24.8644V24.8826V24.901V24.9194V24.9379V24.9564V24.9751V24.9938V25.0126V25.0315V25.0504V25.0695V25.0886V25.1077V25.127V25.1463V25.1657V25.1851V25.2047V25.2243V25.2439V25.2637V25.2835V25.3034V25.3233V25.3433V25.3634V25.3836V25.4038V25.4241V25.4444V25.4648V25.4853V25.5058V25.5264V25.5471V25.5678V25.5886V25.6095V25.6304V25.6514V25.6724V25.6935V25.7146V25.7358V25.7571V25.7784V25.7998V25.8212V25.8427V25.8643V25.8859V25.9075V25.9292V25.951V25.9728V25.9947V26.0166V26.0386V26.0606V26.0827V26.1048V26.127V26.1492V26.1714V26.1938V26.2161V26.2385V26.261V26.2835V26.306V26.3286V26.3513V26.374V26.3967V26.4195V26.4423V26.4651V26.488V26.511V26.5339V26.5569V26.58V26.6031V26.6262V26.6494V26.6726V26.6959V26.7191V26.7425V26.7658V26.7892V26.8126V26.8361V26.8596V26.8831V26.9067V26.9303V26.9539V26.9776V27.0012V27.025V27.0487V27.0725V27.0963V27.1201V27.144V27.1679V27.1918V27.2157V27.2397V27.2637V27.2877V27.3117V27.3358V27.3599V27.384V27.4081V27.4323V27.4564V27.4806V27.5049V27.5291V27.5533V27.5776V27.6019V27.6262V27.6506V27.6749V27.6993V27.7236V27.748V27.7725V27.7969V27.8213V27.8458V27.8702V27.8947V27.9192V27.9437V27.9682V27.9927V28.0173V28.0418V28.0664V28.0909V28.1155V28.1401V28.1646V28.1892V28.2138V28.2384V28.263V28.2876V28.3123V28.3369V28.3615V28.3861V28.4107V28.4354V28.46V28.4846V28.5093V28.5339V28.5585V28.5832V28.6078V28.6324V28.657V28.6816V28.7063V28.7309V28.7555V28.7801V28.8047V28.8293V28.8538V28.8784V28.903V28.9275V28.9521V28.9766V29.0012V29.0257V29.0502V29.0747V29.0992V29.1237V29.1481V29.1726V29.197V29.2215V29.2459V29.2703V29.2946V29.319V29.3433V29.3677V29.392V29.4163V29.4406V29.4648V29.4891V29.5133V29.5375V29.5616V29.5858V29.6099V29.634V29.6581V29.6822V29.7062V29.7303V29.7542V29.7782V29.8021V29.8261V29.8499V29.8738V29.8976V29.9214V29.9452V29.969V29.9927V30.0164V30.04V30.0636V30.0872V30.1108V30.1343V30.1578V30.1813V30.2047V30.2281V30.2515V30.2748V30.2981V30.3213V30.3445V30.3677V30.3908V30.4139V30.437V30.46V30.483V30.5059V30.5288V30.5517V30.5745V30.5972V30.62V30.6427V30.6653V30.6879V30.7104V30.7329V30.7554V30.7778V30.8002V30.8225V30.8448V30.867V30.8892V30.9113V30.9334V30.9554V30.9774V30.9993V31.0211V31.043V31.0647V31.0864V31.1081V31.1297V31.1512V31.1727V31.1942V31.2155V31.2369V31.2581V31.2793V31.3005V31.3216V31.3426V31.3636V31.3845V31.4053V31.4261V31.4469V31.4675V31.4881V31.5087V31.5291V31.5496V31.5699V31.5902V31.6104V31.6306V31.6506V31.6707V31.6906V31.7105V31.7303V31.75V31.7697V31.7893V31.8089V31.8283V31.8477V31.867V31.8863V31.9054V31.9245V31.9436V31.9625V31.9814V32.0002V32.0189V32.0376V32.0561V32.0746V32.093V32.1114V32.1296V32.1478V32.1659V32.1839V32.2019V32.2197V32.2375V32.2552V32.2728V32.2903V32.3078V32.3251V32.3424V32.3596V32.3767V32.3937V32.4106V32.4275V32.4442V32.4609V32.4775V32.494V32.5104V32.5267V32.5429V32.559V32.575V32.591V32.6068V32.6226V32.6383V32.6538V32.6693V32.6847V32.7C37.2001 37.5134 33.3135 41.4 28.5001 41.4C23.6867 41.4 19.8001 37.5134 19.8001 32.7C19.8001 27.8866 23.6867 24 28.5001 24H28.5065H28.513H28.5195H28.526H28.5325H28.539H28.5455H28.5521H28.5587H28.5652H28.5718H28.5784H28.585H28.5917H28.5983H28.605H28.6116H28.6183H28.625H28.6317H28.6384H28.6452H28.6519H28.6587H28.6655H28.6722H28.679H28.6859H28.6927H28.6995H28.7064H28.7132H28.7201H28.727H28.7339H28.7408H28.7477H28.7547H28.7616H28.7686H28.7756H28.7826H28.7896H28.7966H28.8036H28.8107H28.8177H28.8248H28.8319H28.839H28.8461H28.8532H28.8603H28.8675H28.8746H28.8818H28.889H28.8962H28.9034H28.9106H28.9178H28.925H28.9323H28.9396H28.9468H28.9541H28.9614H28.9687H28.976H28.9834H28.9907H28.9981H29.0055H29.0128H29.0202H29.0276H29.0351H29.0425H29.0499H29.0574H29.0648H29.0723H29.0798H29.0873H29.0948H29.1023H29.1099H29.1174H29.125H29.1325H29.1401H29.1477H29.1553H29.1629H29.1705H29.1782H29.1858H29.1935H29.2011H29.2088H29.2165H29.2242H29.2319H29.2396H29.2474H29.2551H29.2629H29.2706H29.2784H29.2862H29.294H29.3018H29.3096H29.3175H29.3253H29.3332H29.341H29.3489H29.3568H29.3647H29.3726H29.3805H29.3884H29.3964H29.4043H29.4123H29.4202H29.4282H29.4362H29.4442H29.4522H29.4602H29.4683H29.4763H29.4844H29.4924H29.5005H29.5086H29.5167H29.5248H29.5329H29.541H29.5491H29.5573H29.5654H29.5736H29.5817H29.5899H29.5981H29.6063H29.6145H29.6227H29.631H29.6392H29.6474H29.6557H29.664H29.6722H29.6805H29.6888H29.6971H29.7054H29.7138H29.7221H29.7304H29.7388H29.7471H29.7555H29.7639H29.7723H29.7807H29.7891H29.7975H29.8059H29.8144H29.8228H29.8312H29.8397H29.8482H29.8567H29.8651H29.8736H29.8821H29.8907H29.8992H29.9077H29.9163H29.9248H29.9334H29.9419H29.9505H29.9591H29.9677H29.9763H29.9849H29.9935H30.0021H30.0108H30.0194H30.0281H30.0367H30.0454H30.0541H30.0627H30.0714H30.0801H30.0888H30.0976H30.1063H30.115H30.1238H30.1325H30.1413H30.15H30.1588H30.1676H30.1764H30.1852H30.194H30.2028H30.2116H30.2205H30.2293H30.2381H30.247H30.2558H30.2647H30.2736H30.2825H30.2914H30.3003H30.3092H30.3181H30.327H30.3359H30.3449H30.3538H30.3628H30.3717H30.3807H30.3897H30.3986H30.4076H30.4166H30.4256H30.4346H30.4436H30.4527H30.4617H30.4707H30.4798H30.4888H30.4979H30.5069H30.516H30.5251H30.5342H30.5433H30.5524H30.5615H30.5706H30.5797H30.5888H30.598H30.6071H30.6163H30.6254H30.6346H30.6437H30.6529H30.6621H30.6713H30.6805H30.6897H30.6989H30.7081H30.7173H30.7265H30.7357H30.745H30.7542H30.7635H30.7727H30.782H30.7913H30.8005H30.8098H30.8191H30.8284H30.8377H30.847H30.8563H30.8656H30.8749H30.8843H30.8936H30.9029H30.9123H30.9216H30.931H30.9403H30.9497H30.9591H30.9685H30.9778H30.9872H30.9966H31.006H31.0154H31.0248H31.0343H31.0437H31.0531H31.0625H31.072H31.0814H31.0909H31.1003H31.1098H31.1192H31.1287H31.1382H31.1477H31.1571H31.1666H31.1761H31.1856H31.1951H31.2046H31.2142H31.2237H31.2332H31.2427H31.2523H31.2618H31.2713H31.2809H31.2904H31.3H31.3096H31.3191H31.3287H31.3383H31.3479H31.3574H31.367H31.3766H31.3862H31.3958H31.4054H31.415H31.4247H31.4343H31.4439H31.4535H31.4632H31.4728H31.4824H31.4921H31.5017H31.5114H31.521H31.5307H31.5404H31.55H31.5597H31.5694H31.5791H31.5888H31.5984H31.6081H31.6178H31.6275H31.6372H31.6469H31.6567H31.6664H31.6761H31.6858H31.6955H31.7053H31.715H31.7247H31.7345H31.7442H31.754H31.7637H31.7735H31.7832H31.793H31.8027H31.8125H31.8223H31.8321H31.8418H31.8516H31.8614H31.8712H31.881H31.8908H31.9005H31.9103H31.9201H31.9299H31.9398H31.9496H31.9594H31.9692H31.979H31.9888H31.9986H32.0085H32.0183H32.0281H32.038H32.0478H32.0576H32.0675H32.0773H32.0872H32.097H32.1069H32.1167H32.1266H32.1364H32.1463H32.1562H32.166H32.1759H32.1858H32.1956H32.2055H32.2154H32.2253H32.2351H32.245H32.2549H32.2648H32.2747H32.2846H32.2945H32.3044H32.3143H32.3242H32.3341H32.344H32.3539H32.3638H32.3737H32.3836H32.3935H32.4034H32.4133H32.4232H32.4332H32.4431H32.453H32.4629H32.4728H32.4828H32.4927H32.5026H32.5125H32.5225H32.5324H32.5423H32.5523H32.5622H32.5721H32.5821H32.592H32.6019H32.6119H32.6218H32.6318H32.6417H32.6517H32.6616H32.6715H32.6815H32.6914H32.7014H32.7113H32.7213H32.7312H32.7412H32.7511H32.7611H32.7711H32.781H32.791H32.8009H32.8109H32.8208H32.8308H32.8407H32.8507H32.8607H32.8706H32.8806H32.8905H32.9005H32.9105H32.9204H32.9304H32.9403H32.9503H32.9603H32.9702H32.9802H32.9901H33.0001H33.7001V23.3V14.9H37.2924L37.2001 23.2923H37.2001V23.3H37.9001Z" stroke="url(#paint0_linear_128_3756)" stroke-width="1.4"/>
<rect x="1.24023" y="0.5" width="55" height="55" rx="27.5" stroke="url(#paint1_linear_128_3756)"/>
<defs>
<linearGradient id="paint0_linear_128_3756" x1="18.3981" y1="14.1999" x2="39.0128" y2="14.9694" gradientUnits="userSpaceOnUse">
<stop stop-color="#F5EA99"/>
<stop offset="1" stop-color="#DB9B45"/>
</linearGradient>
<linearGradient id="paint1_linear_128_3756" x1="-1.33962" y1="-2.64203e-06" x2="59.6408" y2="3.36014" gradientUnits="userSpaceOnUse">
<stop stop-color="#F5EA99"/>
<stop offset="1" stop-color="#DB9B45"/>
</linearGradient>
</defs>
</svg>
